<svg width="205" height="34" viewBox="0 0 205 34" fill="none" xmlns="http://www.w3.org/2000/svg">
<path d="M7.25 29.1667V31.25C7.25 31.8403 7.03837 32.3351 6.6151 32.7344C6.19184 33.1337 5.66736 33.3333 5.04167 33.3333H2.83333C2.20764 33.3333 1.68316 33.1337 1.2599 32.7344C0.836632 32.3351 0.625 31.8403 0.625 31.25V14.5833L5.2625 2.08333C5.48333 1.45833 5.87899 0.954861 6.44948 0.572917C7.01997 0.190972 7.65486 0 8.35417 0H32.6458C33.3451 0 33.98 0.190972 34.5505 0.572917C35.121 0.954861 35.5167 1.45833 35.7375 2.08333L40.375 14.5833V31.25C40.375 31.8403 40.1634 32.3351 39.7401 32.7344C39.3168 33.1337 38.7924 33.3333 38.1667 33.3333H35.9583C35.3326 33.3333 34.8082 33.1337 34.3849 32.7344C33.9616 32.3351 33.75 31.8403 33.75 31.25V29.1667H7.25ZM6.80833 10.4167H34.1917L31.8729 4.16667H9.12708L6.80833 10.4167ZM10.5625 22.9167C11.4826 22.9167 12.2648 22.6128 12.9089 22.0052C13.553 21.3976 13.875 20.6597 13.875 19.7917C13.875 18.9236 13.553 18.1858 12.9089 17.5781C12.2648 16.9705 11.4826 16.6667 10.5625 16.6667C9.64236 16.6667 8.86024 16.9705 8.21615 17.5781C7.57205 18.1858 7.25 18.9236 7.25 19.7917C7.25 20.6597 7.57205 21.3976 8.21615 22.0052C8.86024 22.6128 9.64236 22.9167 10.5625 22.9167ZM30.4375 22.9167C31.3576 22.9167 32.1398 22.6128 32.7839 22.0052C33.428 21.3976 33.75 20.6597 33.75 19.7917C33.75 18.9236 33.428 18.1858 32.7839 17.5781C32.1398 16.9705 31.3576 16.6667 30.4375 16.6667C29.5174 16.6667 28.7352 16.9705 28.0911 17.5781C27.447 18.1858 27.125 18.9236 27.125 19.7917C27.125 20.6597 27.447 21.3976 28.0911 22.0052C28.7352 22.6128 29.5174 22.9167 30.4375 22.9167ZM5.04167 25H35.9583V14.5833H5.04167V25Z" fill="#AF4C52"/>
<path d="M49.7356 30V6.96H53.5756L61.6076 19.888H59.7196L67.6876 6.96H71.5276V30H66.9516V13.776L67.9116 14.032L61.9276 23.664H59.3356L53.3196 14.096L54.2796 13.84V30H49.7356ZM75.4831 30L78.0431 14.8C78.2991 13.2853 78.6831 12.016 79.1951 10.992C79.7285 9.968 80.4111 9.136 81.2431 8.496C82.0965 7.856 83.1098 7.39733 84.2831 7.12C85.4778 6.84267 86.8645 6.704 88.4431 6.704C89.2965 6.704 90.1818 6.75733 91.0991 6.864C92.0378 6.94933 92.9338 7.088 93.7871 7.28L93.8511 7.664C93.7658 8.06933 93.7018 8.592 93.6591 9.232C93.6378 9.872 93.6271 10.5227 93.6271 11.184C93.6271 11.824 93.6271 12.3573 93.6271 12.784V30H89.0511V12.4C89.0511 11.8453 89.0618 11.344 89.0831 10.896C89.1258 10.4267 89.1898 10 89.2751 9.616L89.9151 10.8C89.6591 10.7147 89.3285 10.6613 88.9231 10.64C88.5391 10.5973 88.1551 10.576 87.7711 10.576C86.5978 10.576 85.6591 10.736 84.9551 11.056C84.2725 11.3547 83.7498 11.824 83.3871 12.464C83.0245 13.104 82.7578 13.9147 82.5871 14.896L80.0911 30H75.4831ZM79.1951 23.632V19.856H91.0991V23.632H79.1951Z" fill="#AF4C52"/>
<path d="M96.8394 6.96H115.431V10.928H108.423V30H103.847V10.928H96.8394V6.96ZM117.517 30V18.832C117.517 18.4053 117.506 17.8613 117.485 17.2C117.464 16.5173 117.432 15.856 117.389 15.216C117.368 14.5547 117.304 14.032 117.197 13.648L117.293 13.392C117.89 13.1787 118.584 12.9867 119.373 12.816C120.184 12.6453 121.026 12.5173 121.901 12.432C122.797 12.3253 123.693 12.272 124.589 12.272C124.973 12.272 125.389 12.2827 125.837 12.304C126.285 12.3253 126.733 12.368 127.181 12.432V16.08H126.893C126.573 15.9947 126.21 15.9413 125.805 15.92C125.4 15.8773 125.005 15.856 124.621 15.856C123.938 15.856 123.266 15.9093 122.605 16.016C121.944 16.1227 121.378 16.2507 120.909 16.4L121.581 15.376C121.858 15.952 121.997 16.944 121.997 18.352V30H117.517ZM132.976 9.776C132.25 9.776 131.642 9.56267 131.152 9.136C130.682 8.688 130.448 8.06933 130.448 7.28C130.448 6.512 130.682 5.91467 131.152 5.488C131.642 5.04 132.25 4.816 132.976 4.816C133.722 4.816 134.33 5.04 134.8 5.488C135.269 5.91467 135.504 6.512 135.504 7.28C135.504 8.06933 135.269 8.688 134.8 9.136C134.33 9.56267 133.722 9.776 132.976 9.776ZM130.736 30V17.936C130.736 17.5093 130.725 16.9653 130.704 16.304C130.682 15.6427 130.65 14.992 130.608 14.352C130.586 13.6907 130.522 13.168 130.416 12.784L130.512 12.528H135.216V30H130.736ZM140.642 30V11.088C140.642 10.6613 140.631 10.1173 140.61 9.456C140.61 8.77333 140.589 8.112 140.546 7.472C140.503 6.832 140.429 6.32 140.322 5.936L140.418 5.68H145.122V30H140.642ZM150.548 30V11.088C150.548 10.6613 150.537 10.1173 150.516 9.456C150.495 8.77333 150.463 8.112 150.42 7.472C150.399 6.832 150.335 6.32 150.228 5.936L150.324 5.68H155.028V14.64L154.068 13.168C154.729 12.8693 155.444 12.624 156.212 12.432C157.001 12.2187 157.908 12.112 158.932 12.112C159.977 12.112 160.948 12.2507 161.844 12.528C162.761 12.784 163.551 13.2213 164.212 13.84C164.895 14.4373 165.428 15.2373 165.812 16.24C166.196 17.2213 166.388 18.448 166.388 19.92V30H161.908V20.144C161.908 19.0133 161.737 18.1387 161.396 17.52C161.055 16.88 160.575 16.4427 159.956 16.208C159.359 15.952 158.655 15.824 157.844 15.824C157.396 15.824 156.927 15.8667 156.436 15.952C155.967 16.0373 155.519 16.1333 155.092 16.24C154.687 16.3467 154.367 16.4427 154.132 16.528L155.028 14.512V30H150.548ZM178.52 30.384C175.854 30.384 173.838 29.9467 172.472 29.072C171.128 28.1973 170.456 26.7787 170.456 24.816C170.456 23.5573 170.766 22.5227 171.384 21.712C172.024 20.9013 172.91 20.304 174.04 19.92C175.192 19.5147 176.515 19.312 178.008 19.312C178.926 19.312 179.726 19.3867 180.408 19.536C181.091 19.664 181.71 19.8027 182.264 19.952V22.832C181.838 22.6827 181.294 22.5547 180.632 22.448C179.971 22.32 179.331 22.256 178.712 22.256C177.326 22.256 176.291 22.448 175.608 22.832C174.947 23.216 174.616 23.8667 174.616 24.784C174.616 25.6587 174.947 26.288 175.608 26.672C176.27 27.056 177.219 27.248 178.456 27.248C179.203 27.248 179.918 27.184 180.6 27.056C181.304 26.9067 181.923 26.6827 182.456 26.384L181.816 27.632C181.731 27.376 181.656 27.12 181.592 26.864C181.528 26.608 181.475 26.3413 181.432 26.064C181.411 25.7867 181.39 25.4773 181.368 25.136C181.368 24.7733 181.368 24.336 181.368 23.824V19.44C181.368 18.352 181.198 17.5307 180.856 16.976C180.515 16.4213 180.014 16.0587 179.352 15.888C178.691 15.696 177.87 15.6 176.888 15.6C175.992 15.6 175.128 15.696 174.296 15.888C173.464 16.0587 172.792 16.2613 172.28 16.496H171.96V12.944C172.728 12.6667 173.592 12.464 174.552 12.336C175.512 12.1867 176.472 12.112 177.432 12.112C178.627 12.112 179.726 12.2187 180.728 12.432C181.752 12.6453 182.638 13.0187 183.384 13.552C184.131 14.0853 184.707 14.8427 185.112 15.824C185.539 16.784 185.752 18.032 185.752 19.568V23.6C185.752 24.048 185.752 24.6133 185.752 25.296C185.774 25.9573 185.806 26.608 185.848 27.248C185.891 27.888 185.955 28.4 186.04 28.784L185.944 29.04C185.219 29.3173 184.43 29.5627 183.576 29.776C182.744 29.968 181.891 30.1173 181.016 30.224C180.142 30.3307 179.31 30.384 178.52 30.384ZM189.773 25.584H190.029C190.797 25.904 191.693 26.1813 192.717 26.416C193.763 26.6507 194.808 26.768 195.853 26.768C196.216 26.768 196.611 26.7573 197.037 26.736C197.464 26.6933 197.859 26.6187 198.221 26.512C198.605 26.4053 198.915 26.2133 199.149 25.936C199.405 25.6587 199.533 25.2853 199.533 24.816C199.533 24.2187 199.288 23.8027 198.797 23.568C198.307 23.3333 197.549 23.1307 196.525 22.96L195.021 22.704C193.315 22.4053 192.003 21.8933 191.085 21.168C190.168 20.4213 189.709 19.3227 189.709 17.872C189.709 16.8267 189.987 15.8773 190.541 15.024C191.117 14.1707 192.003 13.4987 193.197 13.008C194.413 12.496 196.003 12.24 197.965 12.24C198.883 12.24 199.725 12.304 200.493 12.432C201.283 12.5387 202.029 12.6987 202.733 12.912V16.592H202.477C201.667 16.272 200.888 16.048 200.141 15.92C199.395 15.792 198.627 15.728 197.837 15.728C196.643 15.728 195.704 15.8773 195.021 16.176C194.36 16.4533 194.029 16.9547 194.029 17.68C194.029 18.2347 194.275 18.6293 194.765 18.864C195.277 19.0987 196.013 19.3013 196.973 19.472L198.445 19.728C199.448 19.8773 200.355 20.144 201.165 20.528C201.997 20.912 202.659 21.4453 203.149 22.128C203.64 22.7893 203.885 23.6427 203.885 24.688C203.885 26.544 203.192 27.9413 201.805 28.88C200.44 29.7973 198.371 30.256 195.597 30.256C194.573 30.256 193.549 30.1707 192.525 30C191.501 29.8293 190.584 29.616 189.773 29.36V25.584Z" fill="#E6A000"/>
</svg>
